<?xml version="1.0" encoding="UTF-8"?>
<svg id="Layer_1" data-name="Layer 1" xmlns="http://www.w3.org/2000/svg" viewBox="0 0 165.27 86.87">
  <defs>
    <style>
      .cls-1 {
        fill: none;
      }

      .cls-2 {
        fill: #6e6f72;
      }

      .cls-3 {
        fill: #010101;
      }

      .cls-4 {
        fill: #ed1c24;
      }
    </style>
  </defs>
  <g>
    <path class="cls-2" d="M5.48,80.1l.07,1.55h-.19c-.04-.27-.08-.47-.15-.59-.1-.19-.24-.33-.4-.42-.17-.09-.39-.13-.66-.13h-.93v5.06c0,.41.04.66.13.76.12.14.31.21.57.21h.23v.18H1.35v-.18h.23c.28,0,.48-.08.6-.25.07-.1.11-.34.11-.71v-5.06h-.8c-.31,0-.53.02-.66.07-.17.06-.31.18-.43.36s-.19.41-.21.71h-.19l.08-1.55h5.41Z"/>
    <path class="cls-2" d="M7.31,82.12v3.59c0,.28.02.47.06.56s.1.16.18.21c.08.04.23.07.44.07v.18h-2.17v-.18c.22,0,.36-.02.44-.06.07-.04.13-.11.18-.21s.07-.29.07-.56v-1.72c0-.49-.01-.8-.04-.94-.02-.1-.06-.18-.11-.22-.05-.04-.12-.06-.2-.06-.09,0-.2.02-.33.07l-.07-.18,1.35-.55h.21ZM6.9,79.78c.14,0,.25.05.35.14.1.1.14.21.14.35s-.05.25-.14.35-.21.15-.35.15-.25-.05-.35-.15-.15-.21-.15-.35.05-.25.14-.35c.1-.1.21-.14.35-.14Z"/>
    <path class="cls-2" d="M9.87,83.07c.33-.33.52-.51.58-.56.15-.12.3-.22.47-.29s.34-.1.5-.1c.28,0,.52.08.72.24.2.16.34.4.41.71.34-.39.62-.65.85-.77s.47-.18.71-.18.45.06.63.18.33.32.44.6c.07.19.11.48.11.89v1.92c0,.28.02.47.06.58.03.07.09.13.18.18.09.05.23.08.43.08v.18h-2.21v-.18h.09c.19,0,.34-.04.45-.11.07-.05.13-.14.16-.25.01-.06.02-.21.02-.47v-1.92c0-.37-.04-.62-.13-.77-.13-.21-.33-.31-.61-.31-.17,0-.35.04-.52.13-.17.09-.38.25-.63.48v.05s0,.21,0,.21v2.13c0,.31.02.5.05.57.03.07.1.14.19.19.09.05.26.08.48.08v.18h-2.26v-.18c.25,0,.42-.03.51-.09s.16-.15.19-.26c.02-.06.02-.22.02-.48v-1.92c0-.37-.05-.63-.16-.79-.14-.21-.34-.31-.6-.31-.18,0-.35.05-.52.14-.27.14-.48.3-.62.48v2.4c0,.29.02.48.06.57s.1.15.18.2.24.07.49.07v.18h-2.21v-.18c.21,0,.35-.02.43-.07s.14-.11.19-.21c.04-.1.06-.28.06-.56v-1.71c0-.49-.01-.81-.04-.95-.02-.11-.06-.18-.11-.22-.05-.04-.12-.06-.2-.06-.09,0-.2.02-.33.07l-.07-.18,1.35-.55h.21v.95Z"/>
    <path class="cls-2" d="M17.08,83.94c0,.66.16,1.18.48,1.56.33.38.71.57,1.15.57.29,0,.55-.08.76-.24s.4-.44.54-.83l.15.1c-.07.45-.27.85-.6,1.22s-.74.55-1.24.55c-.54,0-1-.21-1.38-.63-.38-.42-.57-.98-.57-1.69,0-.77.2-1.36.59-1.79.39-.43.88-.64,1.48-.64.5,0,.91.17,1.24.5.32.33.48.77.48,1.33h-3.09ZM17.08,83.65h2.07c-.02-.29-.05-.49-.1-.61-.08-.18-.2-.33-.36-.43-.16-.1-.33-.16-.51-.16-.27,0-.51.1-.73.31s-.34.5-.37.88Z"/>
    <path class="cls-2" d="M23.65,82.12v1.52h-.16c-.12-.48-.28-.8-.48-.98-.19-.17-.44-.26-.74-.26-.23,0-.41.06-.55.18-.14.12-.21.25-.21.4,0,.18.05.34.16.47.1.13.31.27.62.42l.71.35c.66.32.99.75.99,1.27,0,.41-.15.73-.46.98s-.65.37-1.03.37c-.27,0-.59-.05-.94-.15-.11-.03-.2-.05-.26-.05-.07,0-.13.04-.18.13h-.16v-1.6h.16c.09.46.27.8.52,1.03.26.23.55.35.86.35.22,0,.41-.07.55-.2s.21-.29.21-.48c0-.22-.08-.41-.24-.57-.16-.15-.47-.35-.94-.58s-.78-.45-.93-.63c-.15-.19-.22-.42-.22-.7,0-.37.13-.68.38-.92.25-.25.58-.37.98-.37.18,0,.39.04.64.11.17.05.28.07.33.07.05,0,.09-.01.12-.03.03-.02.06-.07.1-.15h.16Z"/>
    <path class="cls-2" d="M26.71,80.1h1.8l4.05,4.97v-3.82c0-.41-.05-.66-.14-.76-.12-.14-.31-.21-.57-.21h-.23v-.18h2.3v.18h-.23c-.28,0-.48.08-.6.25-.07.1-.11.34-.11.71v5.58h-.18l-4.37-5.33v4.08c0,.41.04.66.13.76.12.14.31.21.57.21h.23v.18h-2.3v-.18h.23c.28,0,.48-.08.6-.25.07-.1.11-.34.11-.71v-4.6c-.19-.22-.34-.37-.44-.44-.1-.07-.25-.14-.44-.2-.09-.03-.24-.04-.43-.04v-.18Z"/>
    <path class="cls-2" d="M35.13,83.94c0,.66.16,1.18.48,1.56.33.38.71.57,1.15.57.29,0,.55-.08.76-.24s.4-.44.54-.83l.15.1c-.07.45-.27.85-.6,1.22s-.74.55-1.24.55c-.54,0-1-.21-1.38-.63-.38-.42-.57-.98-.57-1.69,0-.77.2-1.36.59-1.79.39-.43.88-.64,1.48-.64.5,0,.91.17,1.24.5.32.33.48.77.48,1.33h-3.09ZM35.13,83.65h2.07c-.02-.29-.05-.49-.1-.61-.08-.18-.2-.33-.36-.43-.16-.1-.33-.16-.51-.16-.27,0-.51.1-.73.31s-.34.5-.37.88Z"/>
    <path class="cls-2" d="M38.56,82.25h1.88v.18c-.17.01-.29.04-.34.09s-.08.12-.08.21c0,.1.03.22.08.37l.96,2.57.96-2.09-.25-.66c-.08-.2-.18-.33-.31-.41-.07-.05-.21-.07-.4-.08v-.18h2.13v.18c-.23,0-.4.05-.5.13-.06.05-.1.13-.1.25,0,.06.01.13.04.2l1.02,2.57.94-2.48c.06-.18.1-.32.1-.42,0-.06-.03-.12-.1-.17s-.19-.08-.37-.08v-.18h1.41v.18c-.28.04-.49.23-.62.58l-1.49,3.85h-.2l-1.12-2.86-1.3,2.86h-.18l-1.44-3.76c-.09-.24-.19-.4-.28-.48s-.23-.15-.43-.19v-.18Z"/>
    <path class="cls-2" d="M54.98,86.72h-1.77l-2.24-3.1c-.17,0-.3,0-.41,0-.04,0-.09,0-.14,0-.05,0-.1,0-.15,0v1.92c0,.42.05.67.14.78.12.14.31.21.56.21h.26v.18h-2.84v-.18h.25c.28,0,.48-.09.6-.27.07-.1.1-.34.1-.72v-4.28c0-.42-.05-.68-.14-.78-.13-.14-.32-.21-.57-.21h-.25v-.18h2.41c.7,0,1.22.05,1.56.15s.62.29.85.57c.23.28.35.6.35.98,0,.41-.13.76-.4,1.06-.27.3-.68.51-1.23.63l1.37,1.9c.31.44.58.73.81.87.22.14.52.23.88.27v.18ZM50.28,83.32c.06,0,.12,0,.16,0,.05,0,.08,0,.11,0,.63,0,1.11-.14,1.43-.41s.48-.62.48-1.04-.13-.75-.39-1.01-.6-.39-1.03-.39c-.19,0-.44.03-.77.09v2.75Z"/>
    <path class="cls-2" d="M57.39,82.12c.68,0,1.22.26,1.63.77.35.44.52.94.52,1.51,0,.4-.1.81-.29,1.22s-.46.72-.79.93c-.34.21-.71.31-1.13.31-.67,0-1.21-.27-1.61-.81-.34-.45-.5-.96-.5-1.52,0-.41.1-.82.31-1.22s.47-.7.8-.9c.33-.19.68-.29,1.05-.29ZM57.24,82.44c-.17,0-.35.05-.52.15s-.31.28-.42.54c-.11.26-.16.59-.16.99,0,.65.13,1.21.39,1.68.26.47.6.71,1.02.71.32,0,.58-.13.78-.39.21-.26.31-.71.31-1.34,0-.79-.17-1.42-.51-1.88-.23-.31-.53-.47-.88-.47Z"/>
    <path class="cls-2" d="M61.53,83.07c.33-.33.52-.51.58-.56.15-.12.3-.22.47-.29s.34-.1.5-.1c.28,0,.52.08.72.24.2.16.34.4.41.71.34-.39.62-.65.85-.77s.47-.18.71-.18.45.06.63.18.33.32.44.6c.07.19.11.48.11.89v1.92c0,.28.02.47.06.58.03.07.09.13.18.18.09.05.23.08.43.08v.18h-2.21v-.18h.09c.19,0,.34-.04.45-.11.07-.05.13-.14.16-.25.01-.06.02-.21.02-.47v-1.92c0-.37-.04-.62-.13-.77-.13-.21-.33-.31-.61-.31-.17,0-.35.04-.52.13-.17.09-.38.25-.63.48v.05s0,.21,0,.21v2.13c0,.31.02.5.05.57.03.07.1.14.19.19.09.05.26.08.48.08v.18h-2.26v-.18c.25,0,.42-.03.51-.09s.16-.15.19-.26c.02-.06.02-.22.02-.48v-1.92c0-.37-.05-.63-.16-.79-.14-.21-.34-.31-.6-.31-.18,0-.35.05-.52.14-.27.14-.48.3-.62.48v2.4c0,.29.02.48.06.57s.1.15.18.2.24.07.49.07v.18h-2.21v-.18c.21,0,.35-.02.43-.07s.14-.11.19-.21c.04-.1.06-.28.06-.56v-1.71c0-.49-.01-.81-.04-.95-.02-.11-.06-.18-.11-.22-.05-.04-.12-.06-.2-.06-.09,0-.2.02-.33.07l-.07-.18,1.35-.55h.21v.95Z"/>
    <path class="cls-2" d="M70.52,86.08c-.46.35-.75.56-.86.62-.18.08-.36.12-.56.12-.31,0-.56-.11-.76-.32-.2-.21-.3-.49-.3-.83,0-.22.05-.41.15-.57.13-.22.37-.43.7-.62s.88-.43,1.65-.71v-.18c0-.45-.07-.75-.21-.92s-.35-.25-.62-.25c-.21,0-.37.05-.49.17-.12.11-.19.24-.19.38v.28c0,.15-.03.26-.1.35-.08.08-.18.12-.3.12s-.22-.04-.3-.13c-.08-.08-.11-.2-.11-.35,0-.28.14-.54.43-.77s.69-.35,1.21-.35c.4,0,.72.07.98.2.19.1.33.26.42.47.06.14.09.43.09.86v1.52c0,.43,0,.69.02.78.02.1.04.16.08.19.04.03.08.05.13.05.05,0,.1-.01.14-.03.07-.04.2-.16.4-.36v.27c-.36.49-.71.73-1.04.73-.16,0-.29-.06-.38-.17-.09-.11-.14-.3-.15-.57ZM70.52,85.76v-1.7c-.49.2-.81.33-.95.42-.26.14-.44.29-.55.45s-.17.33-.17.51c0,.23.07.43.21.58.14.16.3.23.48.23.25,0,.57-.16.98-.49Z"/>
    <path class="cls-2" d="M73.73,83.07c.52-.63,1.02-.95,1.5-.95.24,0,.45.06.63.18s.32.32.42.6c.07.2.11.49.11.9v1.91c0,.28.02.47.07.58.04.08.09.14.17.19.08.04.23.07.44.07v.18h-2.21v-.18h.09c.21,0,.35-.03.44-.1s.14-.16.17-.28c.01-.05.02-.2.02-.46v-1.83c0-.41-.05-.7-.16-.89-.11-.18-.28-.28-.53-.28-.39,0-.77.21-1.16.63v2.36c0,.3.02.49.05.56.05.09.11.16.19.21s.24.07.49.07v.18h-2.21v-.18h.1c.23,0,.38-.06.46-.17.08-.12.12-.34.12-.66v-1.66c0-.54-.01-.86-.04-.98s-.06-.2-.11-.24c-.05-.04-.12-.06-.2-.06-.09,0-.2.02-.33.07l-.07-.18,1.35-.55h.21v.95Z"/>
  </g>
  <g>
    <path class="cls-2" d="M112.72,79.75l.16,1.28h-.23c-.11-.71-.58-1.11-1.29-1.11-.76,0-1.2.55-1.2,1.28,0,1.87,3.08,1.34,3.08,3.65,0,1.29-1.15,2.03-2.35,2.03-.5,0-1.04-.11-1.53-.34l-.2-1.46h.23c.2.85.8,1.48,1.56,1.48s1.37-.55,1.37-1.33c0-1.86-2.96-1.31-2.96-3.67,0-1.23.85-1.96,2.14-1.96.39,0,.83.09,1.22.15Z"/>
    <path class="cls-2" d="M117.53,83v2.78c0,.36.12.56.36.56.13,0,.28-.06.37-.17l.09.17c-.27.25-.59.54-.99.54s-.6-.38-.62-.74c-.45.41-.9.74-1.54.74s-1.08-.46-1.08-.98c0-.81.51-.95,2.61-1.68v-.66c0-.51-.28-.86-.97-.86-.48,0-.76.31-.76.71,0,.28-.35.41-.56.41-.15,0-.18-.13-.18-.21,0-.55.52-.8,1.19-1.15.35-.18.49-.3.86-.3.5,0,1.22.32,1.22.84ZM115.64,86.4c.47,0,.78-.3,1.1-.58v-1.32s-.29.1-.58.19c-.69.22-1.23.5-1.23.99,0,.39.32.72.71.72Z"/>
    <path class="cls-2" d="M120.5,79.21v3.67c.49-.42,1.01-.72,1.49-.72,1.12,0,1.86.97,1.86,2.1,0,1.33-.98,2.62-2.39,2.62-.44,0-.82-.07-1.39-.35l-.3.23-.21-.11c.1-.68.14-1.26.14-1.7v-4.38c0-.59-.1-.67-.53-.78v-.16c.91-.3,1.18-.54,1.25-.54.05,0,.08.05.08.12ZM120.5,85.56c0,.5.43,1.05,1.03,1.05,1.04,0,1.52-1,1.52-1.94,0-1.02-.77-1.98-1.61-1.98-.36,0-.7.26-.94.47v2.4Z"/>
    <path class="cls-2" d="M129.4,84.49c0,1.25-.98,2.38-2.3,2.38-1.4,0-2.42-.98-2.42-2.34s.97-2.38,2.29-2.38c1.45,0,2.43.98,2.43,2.34ZM127.1,86.61c.96,0,1.39-1.08,1.39-2.02,0-.84-.44-2.18-1.51-2.18-.89,0-1.37,1.02-1.37,2.02,0,.9.48,2.18,1.49,2.18Z"/>
    <path class="cls-2" d="M131.56,82.25v.66c.57-.41,1.06-.75,1.73-.75.8,0,1.15.56,1.15,1.4v2.6c0,.19.09.31.4.31h.28v.26c-.38,0-.76-.02-1.15-.02-.33,0-.66.01-.99.02v-.26h.26c.23,0,.4-.03.4-.33v-2.59c0-.51-.29-.85-.91-.85-.32,0-.79.23-1.17.48v2.95c0,.27.13.34.39.34h.29v.26c-.37,0-.75-.02-1.12-.02-.34,0-.68.01-1.02.02v-.26h.26c.27,0,.4-.06.4-.32v-2.68c0-.35-.14-.47-.58-.64v-.19l.63-.21c.21-.07.45-.17.69-.27.04,0,.06.04.06.09Z"/>
  </g>
  <path class="cls-3" d="M34.35,47.78c-5.54,4.28-9.01,6.76-10.43,7.42-2.12.98-4.38,1.47-6.77,1.47-3.73,0-6.8-1.28-9.22-3.83-2.42-2.55-3.62-5.91-3.62-10.07,0-2.63.59-4.91,1.77-6.83,1.61-2.67,4.41-5.18,8.4-7.54,3.99-2.36,10.61-5.22,19.88-8.6v-2.12c0-5.38-.85-9.07-2.56-11.08-1.71-2-4.19-3-7.45-3-2.47,0-4.44.67-5.89,2-1.49,1.34-2.24,2.87-2.24,4.6l.12,3.42c0,1.81-.46,3.2-1.38,4.18-.92.98-2.13,1.47-3.62,1.47s-2.64-.51-3.56-1.53c-.92-1.02-1.38-2.42-1.38-4.18,0-3.38,1.73-6.48,5.18-9.31C15,1.41,19.85,0,26.1,0c4.79,0,8.72.81,11.78,2.42,2.32,1.22,4.03,3.12,5.13,5.71.71,1.69,1.06,5.15,1.06,10.37v18.32c0,5.15.1,8.3.29,9.46.2,1.16.52,1.94.97,2.33.45.39.97.59,1.56.59.63,0,1.18-.14,1.65-.41.83-.51,2.42-1.94,4.77-4.3v3.3c-4.4,5.89-8.6,8.84-12.61,8.84-1.92,0-3.46-.67-4.6-2s-1.73-3.61-1.77-6.83ZM34.35,43.95v-20.56c-5.93,2.36-9.76,4.03-11.49,5.01-3.1,1.73-5.32,3.53-6.66,5.42-1.34,1.89-2,3.95-2,6.19,0,2.83.84,5.18,2.53,7.04,1.69,1.87,3.63,2.8,5.83,2.8,2.98,0,6.91-1.96,11.78-5.89Z"/>
  <g>
    <path class="cls-1" d="M123.88,43.01c0,4.7,3.86,8.69,8.57,8.69,5.67,0,9.41-3.63,13.27-7v-15.93c-.6.24-3.5,1.21-7,2.29-8.32,2.66-14.84,6.04-14.84,11.95Z"/>
    <path class="cls-3" d="M164.18,48.8c-.9,1.1-2.3,1.78-3.64,1.98-.28.05-.55.07-.82.07-2.9,0-4.35-2.41-4.35-6.76V10.55c0-6.27-8.68-10.13-14.72-10.13-1.89,0-3.29.26-4.59.73v5.88c6.84.64,9.66,4.66,9.66,10.28v7.96c-25.34,8.81-31.49,10.5-31.49,20.27,0,6.28,4.95,11.83,13.03,11.83s13.15-3.99,18.58-8.93c.24,4.34,2.53,8.93,7.48,8.93,2.69,0,5.08-1.08,7.22-2.57,1.72-1.18,3.28-2.61,4.73-3.95l-1.09-2.05ZM145.72,44.7c-3.86,3.37-7.6,7-13.27,7-4.71,0-8.57-3.99-8.57-8.69,0-5.91,6.52-9.29,14.84-11.95,3.5-1.08,6.4-2.05,7-2.29v15.93Z"/>
    <path class="cls-4" d="M130.28,4.04c-8.09,4.22-14.36,7.24-14.36,13.87,0,.97.36,2.54,2.17,2.54,2.53,0,6.76-1.57,6.76-4.95,0-4.83,3.38-8.57,9.17-8.57.72,0,1.4.03,2.04.1V1.15c-1.76.63-3.35,1.64-5.78,2.89Z"/>
  </g>
  <path class="cls-4" d="M165.27,50.85c-1.45,1.34-3.01,2.77-4.73,3.95v-4.02c1.34-.2,2.74-.88,3.64-1.98l1.09,2.05Z"/>
</svg>