<?xml version="1.0" encoding="UTF-8"?>
<svg id="Layer_1" data-name="Layer 1" xmlns="http://www.w3.org/2000/svg" viewBox="0 0 114.09 106.78">
  <defs>
    <style>
      .cls-1 {
        fill: #010101;
      }

      .cls-2 {
        fill: #ec2227;
      }

      .cls-3 {
        font-family: SabonLTPro-Roman, 'Sabon LT Pro';
      }

      .cls-3, .cls-4 {
        fill: #6e6f72;
        font-size: 8px;
      }

      .cls-4 {
        font-family: TimesNewRomanPSMT, 'Times New Roman';
      }

      .cls-5 {
        letter-spacing: -.04em;
      }

      .cls-6 {
        fill: none;
        stroke: #ec2227;
        stroke-miterlimit: 10;
        stroke-width: .25px;
      }
    </style>
  </defs>
  <text class="cls-3" transform="translate(50.97 104.95)"><tspan x="0" y="0">Sabon</tspan></text>
  <path class="cls-1" d="M32.28,100.59c-.7.86-1.87,1.33-2.88,1.33-.1,0-.2,0-.29-.02-1.68-.15-2.52-1.69-2.52-4.35v-21.68c0-4.06-5.61-6.55-9.51-6.55-1.65,0-2.71.3-3.82.82-.84.39-1.72.91-2.89,1.52-5.23,2.73-9.28,4.68-9.28,8.97,0,.62.23,1.63,1.4,1.63,1.64,0,4.37-1.01,4.37-3.19,0-3.12,2.18-5.54,5.93-5.54.16,0,.32,0,.47.01,5.04.15,7.09,2.84,7.09,6.7v5.14C3.97,91.08,0,92.17,0,98.49c0,4.05,3.19,7.64,8.42,7.64s8.5-2.57,12.01-5.77c.16,2.8,1.64,5.77,4.84,5.77,1.86,0,3.49-.8,4.96-1.86.99-.73,1.9-1.57,2.76-2.35l-.71-1.33ZM20.35,97.94c-2.49,2.18-4.91,4.52-8.58,4.52-3.04,0-5.53-2.57-5.53-5.61,0-3.82,4.21-6.01,9.59-7.72,2.26-.7,4.13-1.33,4.52-1.48v10.29Z"/>
  <path class="cls-1" d="M22.2,30.89c-3.58,2.77-5.83,4.37-6.74,4.8-1.37.63-2.83.95-4.38.95-2.41,0-4.4-.82-5.96-2.48-1.56-1.65-2.34-3.82-2.34-6.51,0-1.7.38-3.17,1.14-4.42,1.04-1.73,2.85-3.35,5.43-4.87,2.58-1.52,6.86-3.38,12.85-5.56v-1.37c0-3.48-.55-5.86-1.66-7.16-1.1-1.29-2.71-1.94-4.82-1.94-1.6,0-2.87.43-3.81,1.29-.97.86-1.45,1.85-1.45,2.97l.08,2.21c0,1.17-.3,2.07-.9,2.7-.6.63-1.38.95-2.34.95s-1.71-.33-2.3-.99c-.6-.66-.9-1.56-.9-2.7,0-2.18,1.12-4.19,3.35-6.02C9.69.91,12.83,0,16.87,0c3.1,0,5.64.52,7.62,1.56,1.5.79,2.6,2.02,3.31,3.69.46,1.09.69,3.33.69,6.7v11.84c0,3.33.06,5.36.19,6.11.13.75.34,1.25.63,1.5.29.25.63.38,1.01.38.41,0,.76-.09,1.07-.27.53-.33,1.56-1.26,3.08-2.78v2.13c-2.84,3.81-5.56,5.71-8.15,5.71-1.24,0-2.23-.43-2.97-1.29-.74-.86-1.12-2.34-1.14-4.42ZM22.2,28.41v-13.29c-3.83,1.52-6.31,2.6-7.43,3.24-2.01,1.12-3.44,2.29-4.3,3.5-.86,1.22-1.29,2.55-1.29,4,0,1.83.55,3.35,1.64,4.55,1.09,1.21,2.35,1.81,3.77,1.81,1.93,0,4.47-1.27,7.62-3.81Z"/>
  <text class="cls-4" transform="translate(52.16 35.71)"><tspan class="cls-5" x="0" y="0">T</tspan><tspan x="4.61" y="0">imes New Roman</tspan></text>
  <circle class="cls-6" cx="32.16" cy="101.91" r="3.05"/>
  <path class="cls-2" d="M13.26,70.14v3.4c-.15-.01-.31-.01-.47-.01-3.75,0-5.93,2.42-5.93,5.54,0,2.18-2.73,3.19-4.37,3.19-1.17,0-1.4-1.01-1.4-1.63,0-4.29,4.05-6.24,9.28-8.97,1.17-.61,2.05-1.13,2.89-1.52Z"/>
</svg>