<?xml version="1.0" encoding="UTF-8"?>
<svg id="Layer_1" data-name="Layer 1" xmlns="http://www.w3.org/2000/svg" viewBox="0 0 138.09 140.61">
  <defs>
    <style>
      .cls-1 {
        fill: #010101;
      }

      .cls-2 {
        fill: #ec2227;
      }

      .cls-3 {
        font-family: SabonLTPro-Roman, 'Sabon LT Pro';
      }

      .cls-3, .cls-4 {
        fill: #6e6f72;
        font-size: 10.26px;
      }

      .cls-5 {
        letter-spacing: -.04em;
      }

      .cls-4 {
        font-family: TimesNewRomanPSMT, 'Times New Roman';
      }
    </style>
  </defs>
  <path class="cls-1" d="M43.94,29.82c-1.24,6.05-3.66,10.7-7.27,13.96-3.61,3.26-7.6,4.89-11.98,4.89-5.21,0-9.76-2.19-13.63-6.57-3.88-4.38-5.81-10.29-5.81-17.74s2.15-13.08,6.44-17.59C15.98,2.26,21.14,0,27.15,0c4.51,0,8.22,1.2,11.13,3.58,2.91,2.39,4.36,4.87,4.36,7.44,0,1.27-.41,2.3-1.23,3.08-.82.79-1.96,1.18-3.43,1.18-1.97,0-3.46-.63-4.46-1.9-.57-.7-.94-2.04-1.13-4.01-.18-1.97-.86-3.47-2.03-4.51-1.17-1-2.79-1.5-4.86-1.5-3.34,0-6.03,1.24-8.07,3.71-2.71,3.28-4.06,7.6-4.06,12.98s1.34,10.32,4.03,14.51c2.69,4.19,6.32,6.29,10.9,6.29,3.27,0,6.21-1.12,8.82-3.36,1.84-1.54,3.62-4.33,5.36-8.37l1.45.7Z"/>
  <text class="cls-3" transform="translate(57.06 138.27)"><tspan x="0" y="0">Sabon</tspan></text>
  <text class="cls-4" transform="translate(58.63 47.13)"><tspan class="cls-5" x="0" y="0">T</tspan><tspan x="5.91" y="0">imes New Roman</tspan></text>
  <g>
    <path class="cls-1" d="M26.17,132.22c-10.57,0-17.96-8.62-17.96-19.91,0-8.11,4.82-17.66,13.45-17.66,1.09,0,2.09.1,2.94.31v-3.56c-14.44.44-24.6,12.66-24.6,27.17,0,10.68,9.55,21.25,20.43,21.25,3.25,0,6.3-.75,9.1-2.09v-5.82c-1.03.21-2.16.31-3.35.31Z"/>
    <path class="cls-2" d="M35.41,102.97c2.46,0,3.9-2.16,3.9-4.52,0-4.72-6.88-7.08-13.86-7.08-.31,0-.58,0-.86.03v3.56c6.77,1.47,6.91,8.01,10.81,8.01Z"/>
    <path class="cls-2" d="M38.7,127.4c-3.01,2.29-5.71,3.9-9.17,4.52v5.82c4.21-1.95,7.9-5.1,10.91-8.59l-1.75-1.75Z"/>
  </g>
</svg>