<?xml version="1.0" encoding="UTF-8"?>
<svg id="Layer_1" data-name="Layer 1" xmlns="http://www.w3.org/2000/svg" viewBox="0 0 187.98 111.33">
  <defs>
    <style>
      .cls-1 {
        fill: #6e6f72;
      }

      .cls-2 {
        fill: #010101;
      }

      .cls-3 {
        fill: #ec2227;
      }
    </style>
  </defs>
  <path class="cls-2" d="M75.56,58.34c-2.41,11.81-7.14,20.9-14.19,27.26-7.05,6.36-14.84,9.54-23.39,9.54-10.18,0-19.05-4.27-26.62-12.82C3.78,73.77,0,62.22,0,47.67S4.19,22.13,12.58,13.32C20.96,4.51,31.03.11,42.77.11c8.81,0,16.05,2.33,21.73,7,5.68,4.67,8.51,9.51,8.51,14.53,0,2.48-.8,4.49-2.4,6.02-1.6,1.53-3.83,2.3-6.7,2.3-3.85,0-6.75-1.24-8.71-3.72-1.11-1.37-1.84-3.98-2.2-7.83-.36-3.85-1.68-6.79-3.96-8.81-2.28-1.96-5.45-2.94-9.49-2.94-6.53,0-11.78,2.41-15.76,7.24-5.29,6.4-7.93,14.84-7.93,25.35s2.63,20.15,7.88,28.33c5.25,8.19,12.35,12.28,21.29,12.28,6.39,0,12.14-2.19,17.23-6.56,3.59-3,7.08-8.45,10.47-16.34l2.84,1.37Z"/>
  <g>
    <path class="cls-2" d="M160.12,79.78c-20.65,0-35.08-16.84-35.08-38.89,0-15.83,9.42-34.48,26.26-34.48,2.14,0,4.08.2,5.75.6V.07c-28.2.87-48.04,24.72-48.04,53.05,0,20.85,18.64,41.49,39.89,41.49,6.35,0,12.29-1.47,17.77-4.08v-11.36c-2,.4-4.21.6-6.55.6Z"/>
    <path class="cls-3" d="M178.16,22.65c4.81,0,7.62-4.21,7.62-8.82,0-9.22-13.43-13.83-27.06-13.83-.6,0-1.14,0-1.67.07v6.95c13.23,2.87,13.5,15.63,21.11,15.63Z"/>
    <path class="cls-3" d="M184.58,70.36c-5.88,4.48-11.16,7.62-17.91,8.82v11.36c8.22-3.81,15.43-9.96,21.31-16.77l-3.41-3.41Z"/>
  </g>
  <g>
    <path class="cls-1" d="M5.79,104.56l.07,1.55h-.19c-.04-.27-.08-.47-.15-.59-.1-.19-.24-.33-.4-.42-.17-.09-.39-.13-.66-.13h-.93v5.06c0,.41.04.66.13.76.12.14.31.21.57.21h.23v.18H1.66v-.18h.23c.28,0,.48-.08.6-.25.07-.1.11-.34.11-.71v-5.06h-.8c-.31,0-.53.02-.66.07-.17.06-.31.18-.43.36s-.19.41-.21.71h-.19l.08-1.55h5.41Z"/>
    <path class="cls-1" d="M7.61,106.58v3.59c0,.28.02.47.06.56s.1.16.18.21c.08.04.23.07.44.07v.18h-2.17v-.18c.22,0,.36-.02.44-.06.07-.04.13-.11.18-.21s.07-.29.07-.56v-1.72c0-.49-.01-.8-.04-.94-.02-.1-.06-.18-.11-.22-.05-.04-.12-.06-.2-.06-.09,0-.2.02-.33.07l-.07-.18,1.35-.55h.21ZM7.21,104.24c.14,0,.25.05.35.14.1.1.14.21.14.35s-.05.25-.14.35-.21.15-.35.15-.25-.05-.35-.15-.15-.21-.15-.35.05-.25.14-.35c.1-.1.21-.14.35-.14Z"/>
    <path class="cls-1" d="M10.18,107.53c.33-.33.52-.51.58-.56.15-.12.3-.22.47-.29s.34-.1.5-.1c.28,0,.52.08.72.24.2.16.34.4.41.71.34-.39.62-.65.85-.77s.47-.18.71-.18.45.06.63.18.33.32.44.6c.07.19.11.48.11.89v1.92c0,.28.02.47.06.58.03.07.09.13.18.18.09.05.23.08.43.08v.18h-2.21v-.18h.09c.19,0,.34-.04.45-.11.07-.05.13-.14.16-.25.01-.06.02-.21.02-.47v-1.92c0-.37-.04-.62-.13-.77-.13-.21-.33-.31-.61-.31-.17,0-.35.04-.52.13-.17.09-.38.25-.63.48v.05s0,.21,0,.21v2.13c0,.31.02.5.05.57.03.07.1.14.19.19.09.05.26.08.48.08v.18h-2.26v-.18c.25,0,.42-.03.51-.09s.16-.15.19-.26c.02-.06.02-.22.02-.48v-1.92c0-.37-.05-.63-.16-.79-.14-.21-.34-.31-.6-.31-.18,0-.35.05-.52.14-.27.14-.48.3-.62.48v2.4c0,.29.02.48.06.57s.1.15.18.2.24.07.49.07v.18h-2.21v-.18c.21,0,.35-.02.43-.07s.14-.11.19-.21c.04-.1.06-.28.06-.56v-1.71c0-.49-.01-.81-.04-.95-.02-.11-.06-.18-.11-.22-.05-.04-.12-.06-.2-.06-.09,0-.2.02-.33.07l-.07-.18,1.35-.55h.21v.95Z"/>
    <path class="cls-1" d="M17.38,108.39c0,.66.16,1.18.48,1.56.33.38.71.57,1.15.57.29,0,.55-.08.76-.24s.4-.44.54-.83l.15.1c-.07.45-.27.85-.6,1.22s-.74.55-1.24.55c-.54,0-1-.21-1.38-.63-.38-.42-.57-.98-.57-1.69,0-.77.2-1.36.59-1.79.39-.43.88-.64,1.48-.64.5,0,.91.17,1.24.5.32.33.48.77.48,1.33h-3.09ZM17.38,108.11h2.07c-.02-.29-.05-.49-.1-.61-.08-.18-.2-.33-.36-.43-.16-.1-.33-.16-.51-.16-.27,0-.51.1-.73.31s-.34.5-.37.88Z"/>
    <path class="cls-1" d="M23.95,106.58v1.52h-.16c-.12-.48-.28-.8-.48-.98-.19-.17-.44-.26-.74-.26-.23,0-.41.06-.55.18-.14.12-.21.25-.21.4,0,.18.05.34.16.47.1.13.31.27.62.42l.71.35c.66.32.99.75.99,1.27,0,.41-.15.73-.46.98s-.65.37-1.03.37c-.27,0-.59-.05-.94-.15-.11-.03-.2-.05-.26-.05-.07,0-.13.04-.18.13h-.16v-1.6h.16c.09.46.27.8.52,1.03.26.23.55.35.86.35.22,0,.41-.07.55-.2s.21-.29.21-.48c0-.22-.08-.41-.24-.57-.16-.15-.47-.35-.94-.58s-.78-.45-.93-.63c-.15-.19-.22-.42-.22-.7,0-.37.13-.68.38-.92.25-.25.58-.37.98-.37.18,0,.39.04.64.11.17.05.28.07.33.07.05,0,.09-.01.12-.03.03-.02.06-.07.1-.15h.16Z"/>
    <path class="cls-1" d="M27.01,104.56h1.8l4.05,4.97v-3.82c0-.41-.05-.66-.14-.76-.12-.14-.31-.21-.57-.21h-.23v-.18h2.3v.18h-.23c-.28,0-.48.08-.6.25-.07.1-.11.34-.11.71v5.58h-.18l-4.37-5.33v4.08c0,.41.04.66.13.76.12.14.31.21.57.21h.23v.18h-2.3v-.18h.23c.28,0,.48-.08.6-.25.07-.1.11-.34.11-.71v-4.6c-.19-.22-.34-.37-.44-.44-.1-.07-.25-.14-.44-.2-.09-.03-.24-.04-.43-.04v-.18Z"/>
    <path class="cls-1" d="M35.43,108.39c0,.66.16,1.18.48,1.56.33.38.71.57,1.15.57.29,0,.55-.08.76-.24s.4-.44.54-.83l.15.1c-.07.45-.27.85-.6,1.22s-.74.55-1.24.55c-.54,0-1-.21-1.38-.63-.38-.42-.57-.98-.57-1.69,0-.77.2-1.36.59-1.79.39-.43.88-.64,1.48-.64.5,0,.91.17,1.24.5.32.33.48.77.48,1.33h-3.09ZM35.43,108.11h2.07c-.02-.29-.05-.49-.1-.61-.08-.18-.2-.33-.36-.43-.16-.1-.33-.16-.51-.16-.27,0-.51.1-.73.31s-.34.5-.37.88Z"/>
    <path class="cls-1" d="M38.87,106.71h1.88v.18c-.17.01-.29.04-.34.09s-.08.12-.08.21c0,.1.03.22.08.37l.96,2.57.96-2.09-.25-.66c-.08-.2-.18-.33-.31-.41-.07-.05-.21-.07-.4-.08v-.18h2.13v.18c-.23,0-.4.05-.5.13-.06.05-.1.13-.1.25,0,.06.01.13.04.2l1.02,2.57.94-2.48c.06-.18.1-.32.1-.42,0-.06-.03-.12-.1-.17s-.19-.08-.37-.08v-.18h1.41v.18c-.28.04-.49.23-.62.58l-1.49,3.85h-.2l-1.12-2.86-1.3,2.86h-.18l-1.44-3.76c-.09-.24-.19-.4-.28-.48s-.23-.15-.43-.19v-.18Z"/>
    <path class="cls-1" d="M55.28,111.18h-1.77l-2.24-3.1c-.17,0-.3,0-.41,0-.04,0-.09,0-.14,0-.05,0-.1,0-.15,0v1.92c0,.42.05.67.14.78.12.14.31.21.56.21h.26v.18h-2.84v-.18h.25c.28,0,.48-.09.6-.27.07-.1.1-.34.1-.72v-4.28c0-.42-.05-.68-.14-.78-.13-.14-.32-.21-.57-.21h-.25v-.18h2.41c.7,0,1.22.05,1.56.15s.62.29.85.57c.23.28.35.6.35.98,0,.41-.13.76-.4,1.06-.27.3-.68.51-1.23.63l1.37,1.9c.31.44.58.73.81.87.22.14.52.23.88.27v.18ZM50.58,107.78c.06,0,.12,0,.16,0,.05,0,.08,0,.11,0,.63,0,1.11-.14,1.43-.41s.48-.62.48-1.04-.13-.75-.39-1.01-.6-.39-1.03-.39c-.19,0-.44.03-.77.09v2.75Z"/>
    <path class="cls-1" d="M57.7,106.58c.68,0,1.22.26,1.63.77.35.44.52.94.52,1.51,0,.4-.1.81-.29,1.22s-.46.72-.79.93c-.34.21-.71.31-1.13.31-.67,0-1.21-.27-1.61-.81-.34-.45-.5-.96-.5-1.52,0-.41.1-.82.31-1.22s.47-.7.8-.9c.33-.19.68-.29,1.05-.29ZM57.54,106.9c-.17,0-.35.05-.52.15s-.31.28-.42.54c-.11.26-.16.59-.16.99,0,.65.13,1.21.39,1.68.26.47.6.71,1.02.71.32,0,.58-.13.78-.39.21-.26.31-.71.31-1.34,0-.79-.17-1.42-.51-1.88-.23-.31-.53-.47-.88-.47Z"/>
    <path class="cls-1" d="M61.84,107.53c.33-.33.52-.51.58-.56.15-.12.3-.22.47-.29s.34-.1.5-.1c.28,0,.52.08.72.24.2.16.34.4.41.71.34-.39.62-.65.85-.77s.47-.18.71-.18.45.06.63.18.33.32.44.6c.07.19.11.48.11.89v1.92c0,.28.02.47.06.58.03.07.09.13.18.18.09.05.23.08.43.08v.18h-2.21v-.18h.09c.19,0,.34-.04.45-.11.07-.05.13-.14.16-.25.01-.06.02-.21.02-.47v-1.92c0-.37-.04-.62-.13-.77-.13-.21-.33-.31-.61-.31-.17,0-.35.04-.52.13-.17.09-.38.25-.63.48v.05s0,.21,0,.21v2.13c0,.31.02.5.05.57.03.07.1.14.19.19.09.05.26.08.48.08v.18h-2.26v-.18c.25,0,.42-.03.51-.09s.16-.15.19-.26c.02-.06.02-.22.02-.48v-1.92c0-.37-.05-.63-.16-.79-.14-.21-.34-.31-.6-.31-.18,0-.35.05-.52.14-.27.14-.48.3-.62.48v2.4c0,.29.02.48.06.57s.1.15.18.2.24.07.49.07v.18h-2.21v-.18c.21,0,.35-.02.43-.07s.14-.11.19-.21c.04-.1.06-.28.06-.56v-1.71c0-.49-.01-.81-.04-.95-.02-.11-.06-.18-.11-.22-.05-.04-.12-.06-.2-.06-.09,0-.2.02-.33.07l-.07-.18,1.35-.55h.21v.95Z"/>
    <path class="cls-1" d="M70.82,110.54c-.46.35-.75.56-.86.62-.18.08-.36.12-.56.12-.31,0-.56-.11-.76-.32-.2-.21-.3-.49-.3-.83,0-.22.05-.41.15-.57.13-.22.37-.43.7-.62s.88-.43,1.65-.71v-.18c0-.45-.07-.75-.21-.92s-.35-.25-.62-.25c-.21,0-.37.05-.49.17-.12.11-.19.24-.19.38v.28c0,.15-.03.26-.1.35-.08.08-.18.12-.3.12s-.22-.04-.3-.13c-.08-.08-.11-.2-.11-.35,0-.28.14-.54.43-.77s.69-.35,1.21-.35c.4,0,.72.07.98.2.19.1.33.26.42.47.06.14.09.43.09.86v1.52c0,.43,0,.69.02.78.02.1.04.16.08.19.04.03.08.05.13.05.05,0,.1-.01.14-.03.07-.04.2-.16.4-.36v.27c-.36.49-.71.73-1.04.73-.16,0-.29-.06-.38-.17-.09-.11-.14-.3-.15-.57ZM70.82,110.22v-1.7c-.49.2-.81.33-.95.42-.26.14-.44.29-.55.45s-.17.33-.17.51c0,.23.07.43.21.58.14.16.3.23.48.23.25,0,.57-.16.98-.49Z"/>
    <path class="cls-1" d="M74.03,107.53c.52-.63,1.02-.95,1.5-.95.24,0,.45.06.63.18s.32.32.42.6c.07.2.11.49.11.9v1.91c0,.28.02.47.07.58.04.08.09.14.17.19.08.04.23.07.44.07v.18h-2.21v-.18h.09c.21,0,.35-.03.44-.1s.14-.16.17-.28c.01-.05.02-.2.02-.46v-1.83c0-.41-.05-.7-.16-.89-.11-.18-.28-.28-.53-.28-.39,0-.77.21-1.16.63v2.36c0,.3.02.49.05.56.05.09.11.16.19.21s.24.07.49.07v.18h-2.21v-.18h.1c.23,0,.38-.06.46-.17.08-.12.12-.34.12-.66v-1.66c0-.54-.01-.86-.04-.98s-.06-.2-.11-.24c-.05-.04-.12-.06-.2-.06-.09,0-.2.02-.33.07l-.07-.18,1.35-.55h.21v.95Z"/>
  </g>
  <g>
    <path class="cls-1" d="M113.03,104.21l.16,1.28h-.23c-.11-.71-.58-1.11-1.29-1.11-.76,0-1.2.55-1.2,1.28,0,1.87,3.08,1.34,3.08,3.65,0,1.29-1.15,2.03-2.35,2.03-.5,0-1.04-.11-1.53-.34l-.2-1.46h.23c.2.85.8,1.48,1.56,1.48s1.37-.55,1.37-1.33c0-1.86-2.96-1.31-2.96-3.67,0-1.23.85-1.96,2.14-1.96.39,0,.83.09,1.22.15Z"/>
    <path class="cls-1" d="M117.84,107.45v2.78c0,.36.12.56.36.56.13,0,.28-.06.37-.17l.09.17c-.27.25-.59.54-.99.54s-.6-.38-.62-.74c-.45.41-.9.74-1.54.74s-1.08-.46-1.08-.98c0-.81.51-.95,2.61-1.68v-.66c0-.51-.28-.86-.97-.86-.48,0-.76.31-.76.71,0,.28-.35.41-.56.41-.15,0-.18-.13-.18-.21,0-.55.52-.8,1.19-1.15.35-.18.49-.3.86-.3.5,0,1.22.32,1.22.84ZM115.94,110.86c.47,0,.78-.3,1.1-.58v-1.32s-.29.1-.58.19c-.69.22-1.23.5-1.23.99,0,.39.32.72.71.72Z"/>
    <path class="cls-1" d="M120.8,103.67v3.67c.49-.42,1.01-.72,1.49-.72,1.12,0,1.86.97,1.86,2.1,0,1.33-.98,2.62-2.39,2.62-.44,0-.82-.07-1.39-.35l-.3.23-.21-.11c.1-.68.14-1.26.14-1.7v-4.38c0-.59-.1-.67-.53-.78v-.16c.91-.3,1.18-.54,1.25-.54.05,0,.08.05.08.12ZM120.8,110.02c0,.5.43,1.05,1.03,1.05,1.04,0,1.52-1,1.52-1.94,0-1.02-.77-1.98-1.61-1.98-.36,0-.7.26-.94.47v2.4Z"/>
    <path class="cls-1" d="M129.71,108.95c0,1.25-.98,2.38-2.3,2.38-1.4,0-2.42-.98-2.42-2.34s.97-2.38,2.29-2.38c1.45,0,2.43.98,2.43,2.34ZM127.4,111.07c.96,0,1.39-1.08,1.39-2.02,0-.84-.44-2.18-1.51-2.18-.89,0-1.37,1.02-1.37,2.02,0,.9.48,2.18,1.49,2.18Z"/>
    <path class="cls-1" d="M131.86,106.71v.66c.57-.41,1.06-.75,1.73-.75.8,0,1.15.56,1.15,1.4v2.6c0,.19.09.31.4.31h.28v.26c-.38,0-.76-.02-1.15-.02-.33,0-.66.01-.99.02v-.26h.26c.23,0,.4-.03.4-.33v-2.59c0-.51-.29-.85-.91-.85-.32,0-.79.23-1.17.48v2.95c0,.27.13.34.39.34h.29v.26c-.37,0-.75-.02-1.12-.02-.34,0-.68.01-1.02.02v-.26h.26c.27,0,.4-.06.4-.32v-2.68c0-.35-.14-.47-.58-.64v-.19l.63-.21c.21-.07.45-.17.69-.27.04,0,.06.04.06.09Z"/>
  </g>
</svg>