<?xml version="1.0" encoding="UTF-8"?>
<svg id="Layer_1" data-name="Layer 1" xmlns="http://www.w3.org/2000/svg" viewBox="0 0 240.55 127.47">
  <defs>
    <style>
      .cls-1 {
        fill: #6e6f72;
      }

      .cls-2 {
        fill: #010101;
      }

      .cls-3 {
        fill: #ec2227;
      }
    </style>
  </defs>
  <path class="cls-2" d="M75.56,58.34c-2.41,11.81-7.14,20.9-14.19,27.26-7.05,6.36-14.84,9.54-23.39,9.54-10.18,0-19.05-4.27-26.62-12.82C3.78,73.77,0,62.22,0,47.67S4.19,22.13,12.58,13.32C20.96,4.51,31.03.11,42.77.11c8.81,0,16.05,2.33,21.73,7,5.68,4.67,8.51,9.51,8.51,14.53,0,2.48-.8,4.49-2.4,6.02-1.6,1.53-3.83,2.3-6.7,2.3-3.85,0-6.75-1.24-8.71-3.72-1.11-1.37-1.84-3.98-2.2-7.83-.36-3.85-1.68-6.79-3.96-8.81-2.28-1.96-5.45-2.94-9.49-2.94-6.53,0-11.78,2.41-15.76,7.24-5.29,6.4-7.93,14.84-7.93,25.35s2.63,20.15,7.88,28.33c5.25,8.19,12.35,12.28,21.29,12.28,6.39,0,12.14-2.19,17.23-6.56,3.59-3,7.08-8.45,10.47-16.34l2.84,1.37Z"/>
  <g>
    <path class="cls-1" d="M171.6,115.74l.25,2.02h-.36c-.17-1.12-.92-1.76-2.04-1.76-1.2,0-1.9.87-1.9,2.02,0,2.96,4.87,2.12,4.87,5.77,0,2.04-1.82,3.21-3.72,3.21-.79,0-1.64-.17-2.42-.54l-.32-2.31h.36c.32,1.34,1.26,2.34,2.47,2.34s2.17-.87,2.17-2.1c0-2.94-4.68-2.07-4.68-5.8,0-1.95,1.34-3.1,3.38-3.1.62,0,1.31.14,1.93.24Z"/>
    <path class="cls-1" d="M179.21,120.88v4.4c0,.57.19.89.57.89.21,0,.44-.09.58-.27l.14.27c-.43.4-.93.85-1.57.85s-.95-.6-.98-1.17c-.71.65-1.42,1.17-2.44,1.17s-1.71-.73-1.71-1.55c0-1.28.81-1.5,4.13-2.66v-1.04c0-.81-.44-1.36-1.53-1.36-.76,0-1.2.49-1.2,1.12,0,.44-.55.65-.89.65-.24,0-.28-.2-.28-.33,0-.87.82-1.26,1.88-1.82.55-.28.77-.47,1.36-.47.79,0,1.93.51,1.93,1.33ZM176.2,126.28c.74,0,1.23-.47,1.74-.92v-2.09c-.08.03-.46.16-.92.3-1.09.35-1.95.79-1.95,1.57,0,.62.51,1.14,1.12,1.14Z"/>
    <path class="cls-1" d="M183.89,114.89v5.8c.77-.66,1.6-1.14,2.36-1.14,1.77,0,2.94,1.53,2.94,3.32,0,2.1-1.55,4.14-3.78,4.14-.7,0-1.3-.11-2.2-.55l-.47.36-.33-.17c.16-1.08.22-1.99.22-2.69v-6.93c0-.93-.16-1.06-.84-1.23v-.25c1.44-.47,1.87-.85,1.98-.85.08,0,.13.08.13.19ZM183.89,124.95c0,.79.68,1.66,1.63,1.66,1.64,0,2.4-1.58,2.4-3.07,0-1.61-1.22-3.13-2.55-3.13-.57,0-1.11.41-1.49.74v3.8Z"/>
    <path class="cls-1" d="M197.98,123.26c0,1.98-1.55,3.76-3.64,3.76-2.21,0-3.83-1.55-3.83-3.7s1.53-3.76,3.62-3.76c2.29,0,3.84,1.55,3.84,3.7ZM194.32,126.61c1.52,0,2.2-1.71,2.2-3.19,0-1.33-.7-3.45-2.39-3.45-1.41,0-2.17,1.61-2.17,3.19,0,1.42.76,3.45,2.36,3.45Z"/>
    <path class="cls-1" d="M201.37,119.7v1.04c.9-.65,1.68-1.19,2.74-1.19,1.26,0,1.82.89,1.82,2.21v4.11c0,.3.14.49.63.49h.44v.41c-.6,0-1.2-.03-1.82-.03-.52,0-1.04.02-1.57.03v-.41h.41c.36,0,.63-.05.63-.52v-4.1c0-.81-.46-1.34-1.44-1.34-.51,0-1.25.36-1.85.76v4.67c0,.43.21.54.62.54h.46v.41c-.59,0-1.19-.03-1.77-.03-.54,0-1.08.02-1.61.03v-.41h.41c.43,0,.63-.09.63-.51v-4.24c0-.55-.22-.74-.92-1.01v-.3l1-.33c.33-.11.71-.27,1.09-.43.06,0,.09.06.09.14Z"/>
  </g>
  <g>
    <path class="cls-1" d="M17.91,115.43l.13,2.77h-.33c-.06-.49-.15-.84-.26-1.04-.18-.34-.42-.58-.72-.74-.3-.16-.69-.24-1.18-.24h-1.66v9.02c0,.73.08,1.18.23,1.36.22.24.56.37,1.02.37h.41v.32h-5v-.32h.42c.5,0,.85-.15,1.06-.45.13-.19.19-.61.19-1.27v-9.02h-1.42c-.55,0-.94.04-1.17.12-.3.11-.56.32-.77.64-.21.31-.34.74-.38,1.27h-.33l.14-2.77h9.63Z"/>
    <path class="cls-1" d="M21.17,119.02v6.4c0,.5.04.83.11,1s.18.29.32.37c.14.08.4.12.78.12v.31h-3.87v-.31c.39,0,.65-.04.78-.11s.24-.2.32-.37c.08-.17.12-.51.12-1v-3.07c0-.86-.03-1.42-.08-1.68-.04-.18-.1-.31-.19-.39-.09-.07-.21-.11-.36-.11-.16,0-.36.04-.59.13l-.12-.31,2.4-.98h.38ZM20.44,114.85c.24,0,.45.09.62.26s.26.38.26.62-.09.45-.26.63c-.17.17-.38.26-.62.26s-.45-.09-.63-.26c-.17-.17-.26-.38-.26-.63s.09-.45.26-.62.38-.26.63-.26Z"/>
    <path class="cls-1" d="M25.73,120.72c.58-.58.92-.91,1.03-1,.26-.22.54-.39.84-.51.3-.12.6-.18.9-.18.5,0,.93.15,1.29.44.36.29.6.71.72,1.26.6-.7,1.1-1.15,1.51-1.37.41-.22.84-.33,1.27-.33s.8.11,1.13.33.59.57.78,1.07c.13.34.19.86.19,1.58v3.43c0,.5.04.84.11,1.03.06.13.17.24.32.33s.41.13.77.13v.31h-3.93v-.31h.17c.34,0,.61-.07.8-.2.13-.09.23-.24.29-.44.02-.1.03-.38.03-.84v-3.43c0-.65-.08-1.11-.23-1.38-.23-.37-.59-.56-1.09-.56-.31,0-.62.08-.93.23-.31.15-.69.44-1.13.86l-.02.1.02.37v3.8c0,.55.03.88.09,1.02s.18.24.34.34c.17.09.45.13.86.13v.31h-4.03v-.31c.44,0,.74-.05.91-.16s.28-.26.34-.47c.03-.1.04-.39.04-.86v-3.43c0-.65-.1-1.12-.29-1.4-.26-.37-.61-.56-1.07-.56-.31,0-.62.08-.93.25-.48.26-.85.54-1.11.86v4.27c0,.52.04.86.11,1.02s.18.27.32.35c.14.08.43.12.87.12v.31h-3.94v-.31c.37,0,.62-.04.77-.12s.26-.2.33-.37c.08-.17.11-.5.11-1v-3.05c0-.88-.03-1.44-.08-1.7-.04-.19-.1-.32-.19-.4-.09-.07-.21-.11-.36-.11-.16,0-.36.04-.58.13l-.13-.31,2.4-.98h.37v1.7Z"/>
    <path class="cls-1" d="M38.57,122.26c0,1.18.28,2.11.86,2.78.58.67,1.26,1.01,2.04,1.01.52,0,.98-.14,1.36-.43s.71-.78.97-1.48l.27.17c-.12.79-.48,1.52-1.06,2.17s-1.32.98-2.2.98c-.96,0-1.78-.37-2.46-1.12-.68-.75-1.02-1.75-1.02-3.01,0-1.36.35-2.43,1.05-3.19.7-.76,1.58-1.14,2.63-1.14.89,0,1.63.29,2.2.88.57.59.86,1.38.86,2.36h-5.51ZM38.57,121.75h3.69c-.03-.51-.09-.87-.18-1.08-.15-.32-.36-.58-.65-.77-.29-.18-.59-.28-.9-.28-.48,0-.91.19-1.29.56s-.6.9-.67,1.56Z"/>
    <path class="cls-1" d="M50.29,119.02v2.72h-.29c-.22-.85-.5-1.43-.85-1.74s-.78-.46-1.32-.46c-.41,0-.73.11-.98.32-.25.22-.37.45-.37.71,0,.32.09.6.28.84.18.24.55.49,1.1.76l1.27.62c1.18.57,1.77,1.33,1.77,2.27,0,.73-.27,1.31-.82,1.75s-1.16.67-1.84.67c-.49,0-1.04-.09-1.67-.26-.19-.06-.35-.09-.47-.09-.13,0-.24.08-.31.23h-.29v-2.85h.29c.16.81.47,1.42.93,1.84.46.41.97.62,1.54.62.4,0,.73-.12.98-.35.25-.23.38-.52.38-.85,0-.4-.14-.74-.42-1.01s-.84-.62-1.68-1.04c-.84-.42-1.39-.79-1.65-1.13-.26-.33-.39-.75-.39-1.25,0-.66.22-1.2.67-1.64.45-.44,1.03-.66,1.74-.66.31,0,.69.07,1.14.2.3.09.49.13.59.13.09,0,.17-.02.22-.06.05-.04.11-.13.18-.27h.29Z"/>
    <path class="cls-1" d="M55.74,115.43h3.2l7.21,8.85v-6.81c0-.73-.08-1.18-.24-1.36-.21-.24-.55-.37-1.02-.37h-.41v-.32h4.11v.32h-.42c-.5,0-.85.15-1.06.45-.13.19-.19.61-.19,1.27v9.95h-.31l-7.78-9.5v7.27c0,.73.08,1.18.24,1.36.22.24.56.37,1.02.37h.42v.32h-4.11v-.32h.41c.5,0,.86-.15,1.07-.45.13-.19.19-.61.19-1.27v-8.21c-.34-.4-.6-.66-.78-.79-.18-.13-.44-.25-.78-.36-.17-.05-.42-.08-.77-.08v-.32Z"/>
    <path class="cls-1" d="M70.74,122.26c0,1.18.28,2.11.86,2.78.58.67,1.26,1.01,2.04,1.01.52,0,.98-.14,1.36-.43s.71-.78.97-1.48l.27.17c-.12.79-.48,1.52-1.06,2.17s-1.32.98-2.2.98c-.96,0-1.78-.37-2.46-1.12-.68-.75-1.02-1.75-1.02-3.01,0-1.36.35-2.43,1.05-3.19.7-.76,1.58-1.14,2.63-1.14.89,0,1.63.29,2.2.88.57.59.86,1.38.86,2.36h-5.51ZM70.74,121.75h3.69c-.03-.51-.09-.87-.18-1.08-.15-.32-.36-.58-.65-.77-.29-.18-.59-.28-.9-.28-.48,0-.91.19-1.29.56s-.6.9-.67,1.56Z"/>
    <path class="cls-1" d="M76.87,119.26h3.34v.32c-.31.02-.51.08-.61.16-.1.09-.14.21-.14.37,0,.18.05.4.15.65l1.71,4.59,1.71-3.73-.45-1.17c-.14-.35-.32-.59-.55-.72-.13-.08-.37-.13-.71-.15v-.32h3.79v.32c-.42.02-.71.09-.89.23-.12.09-.17.24-.17.44,0,.12.02.24.07.36l1.81,4.58,1.68-4.41c.12-.31.17-.56.17-.75,0-.11-.06-.21-.17-.3s-.34-.14-.67-.15v-.32h2.51v.32c-.5.08-.88.42-1.11,1.03l-2.66,6.87h-.36l-1.99-5.09-2.32,5.09h-.32l-2.56-6.7c-.17-.42-.33-.71-.5-.86-.16-.15-.42-.26-.77-.33v-.32Z"/>
    <path class="cls-1" d="M106.12,127.23h-3.15l-3.99-5.52c-.3.01-.54.02-.72.02-.08,0-.16,0-.24,0-.09,0-.18,0-.27-.01v3.43c0,.74.08,1.2.24,1.38.22.26.55.38.99.38h.46v.32h-5.06v-.32h.44c.5,0,.86-.16,1.07-.49.12-.18.18-.61.18-1.28v-7.62c0-.74-.08-1.2-.24-1.38-.23-.26-.56-.38-1.01-.38h-.44v-.32h4.3c1.25,0,2.18.09,2.77.27.59.18,1.1.52,1.51,1.01.41.49.62,1.07.62,1.75,0,.73-.24,1.35-.71,1.89-.47.53-1.21.91-2.2,1.13l2.44,3.39c.56.78,1.04,1.29,1.44,1.55s.92.42,1.57.49v.32ZM97.74,121.16c.11,0,.21,0,.29,0,.08,0,.15,0,.2,0,1.13,0,1.97-.24,2.55-.73s.86-1.11.86-1.86-.23-1.34-.69-1.8c-.46-.46-1.07-.69-1.83-.69-.34,0-.79.05-1.37.16v4.91Z"/>
    <path class="cls-1" d="M110.42,119.02c1.21,0,2.18.46,2.91,1.38.62.78.93,1.68.93,2.7,0,.71-.17,1.44-.51,2.17-.34.73-.81,1.28-1.41,1.65-.6.37-1.27.56-2.01.56-1.2,0-2.16-.48-2.86-1.44-.6-.81-.9-1.71-.9-2.72,0-.73.18-1.46.54-2.18.36-.72.84-1.26,1.43-1.6.59-.35,1.22-.52,1.88-.52ZM110.15,119.59c-.31,0-.62.09-.93.27-.31.18-.56.5-.75.96s-.29,1.05-.29,1.77c0,1.16.23,2.16.69,3,.46.84,1.07,1.26,1.82,1.26.56,0,1.03-.23,1.39-.7.37-.46.55-1.26.55-2.39,0-1.42-.3-2.53-.91-3.34-.41-.56-.94-.84-1.58-.84Z"/>
    <path class="cls-1" d="M117.8,120.72c.58-.58.92-.91,1.03-1,.26-.22.54-.39.84-.51.3-.12.6-.18.9-.18.5,0,.93.15,1.29.44.36.29.6.71.72,1.26.6-.7,1.1-1.15,1.51-1.37.41-.22.84-.33,1.27-.33s.8.11,1.13.33.59.57.78,1.07c.13.34.19.86.19,1.58v3.43c0,.5.04.84.11,1.03.06.13.17.24.32.33s.41.13.77.13v.31h-3.93v-.31h.17c.34,0,.61-.07.8-.2.13-.09.23-.24.29-.44.02-.1.03-.38.03-.84v-3.43c0-.65-.08-1.11-.23-1.38-.23-.37-.59-.56-1.09-.56-.31,0-.62.08-.93.23-.31.15-.69.44-1.13.86l-.02.1.02.37v3.8c0,.55.03.88.09,1.02s.18.24.34.34c.17.09.45.13.86.13v.31h-4.03v-.31c.44,0,.74-.05.91-.16s.28-.26.34-.47c.03-.1.04-.39.04-.86v-3.43c0-.65-.1-1.12-.29-1.4-.26-.37-.61-.56-1.07-.56-.31,0-.62.08-.93.25-.48.26-.85.54-1.11.86v4.27c0,.52.04.86.11,1.02s.18.27.32.35c.14.08.43.12.87.12v.31h-3.94v-.31c.37,0,.62-.04.77-.12s.26-.2.33-.37c.08-.17.11-.5.11-1v-3.05c0-.88-.03-1.44-.08-1.7-.04-.19-.1-.32-.19-.4-.09-.07-.21-.11-.36-.11-.16,0-.36.04-.58.13l-.13-.31,2.4-.98h.37v1.7Z"/>
    <path class="cls-1" d="M133.81,126.08c-.82.63-1.33,1-1.54,1.1-.31.15-.65.22-1,.22-.55,0-1-.19-1.36-.57s-.53-.87-.53-1.49c0-.39.09-.73.26-1.01.24-.4.65-.77,1.24-1.11s1.57-.77,2.94-1.27v-.31c0-.79-.13-1.34-.38-1.64-.25-.3-.62-.44-1.1-.44-.37,0-.66.1-.87.3-.22.2-.33.42-.33.68l.02.5c0,.27-.07.47-.2.62-.14.15-.32.22-.54.22s-.39-.07-.53-.23-.2-.36-.2-.62c0-.5.26-.96.77-1.37s1.23-.63,2.15-.63c.71,0,1.29.12,1.74.36.34.18.59.46.76.84.1.25.16.76.16,1.53v2.71c0,.76.01,1.23.04,1.4.03.17.08.29.14.34.07.06.14.09.23.09.09,0,.17-.02.24-.06.12-.07.36-.29.71-.63v.49c-.65.87-1.27,1.31-1.86,1.31-.28,0-.51-.1-.68-.3-.17-.2-.26-.53-.26-1.01ZM133.81,125.51v-3.04c-.88.35-1.44.59-1.7.74-.46.26-.79.52-.98.8s-.3.58-.3.91c0,.42.13.76.37,1.04s.54.41.86.41c.44,0,1.02-.29,1.74-.87Z"/>
    <path class="cls-1" d="M139.53,120.71c.93-1.13,1.82-1.69,2.67-1.69.44,0,.81.11,1.12.33s.56.58.75,1.07c.13.35.19.88.19,1.6v3.4c0,.51.04.85.12,1.03.06.15.17.26.31.34.14.08.4.12.79.12v.31h-3.94v-.31h.17c.37,0,.63-.06.78-.17.15-.11.25-.28.31-.5.02-.09.03-.36.03-.82v-3.26c0-.73-.09-1.25-.28-1.58-.19-.33-.51-.49-.95-.49-.69,0-1.38.38-2.06,1.13v4.2c0,.54.03.87.1,1,.08.17.19.29.33.37.14.08.43.12.87.12v.31h-3.94v-.31h.17c.41,0,.68-.1.82-.31.14-.21.21-.6.21-1.18v-2.96c0-.96-.02-1.54-.07-1.75-.04-.21-.11-.35-.2-.43-.09-.07-.21-.11-.36-.11-.16,0-.36.04-.58.13l-.13-.31,2.4-.98h.37v1.69Z"/>
  </g>
  <g>
    <path class="cls-2" d="M212.69,79.78c-20.65,0-35.08-16.84-35.08-38.89,0-15.83,9.42-34.48,26.26-34.48,2.14,0,4.08.2,5.75.6V.07c-28.2.87-48.04,24.72-48.04,53.05,0,20.85,18.64,41.49,39.89,41.49,6.35,0,12.29-1.47,17.77-4.08v-11.36c-2,.4-4.21.6-6.55.6Z"/>
    <path class="cls-3" d="M230.72,22.65c4.81,0,7.62-4.21,7.62-8.82,0-9.22-13.43-13.83-27.06-13.83-.6,0-1.14,0-1.67.07v6.95c13.23,2.87,13.5,15.63,21.11,15.63Z"/>
    <path class="cls-3" d="M237.14,70.36c-5.88,4.48-11.16,7.62-17.91,8.82v11.36c8.22-3.81,15.43-9.96,21.31-16.77l-3.41-3.41Z"/>
  </g>
</svg>