<?xml version="1.0" encoding="UTF-8"?>
<svg id="Layer_1" xmlns="http://www.w3.org/2000/svg" version="1.1" viewBox="0 0 432 288">
  <!-- Generator: Adobe Illustrator 29.2.1, SVG Export Plug-In . SVG Version: 2.1.0 Build 116)  -->
  <defs>
    <style>
      .st0 {
        isolation: isolate;
      }

      .st1 {
        fill: none;
        stroke: #231f20;
        stroke-miterlimit: 10;
        stroke-width: .46px;
      }

      .st2 {
        fill: #a9abae;
      }
    </style>
  </defs>
  <g class="st0">
    <g class="st0">
      <path d="M61.99,125.48h20.56v-12.66c0-2.26-.14-3.75-.42-4.47-.22-.54-.67-1.01-1.37-1.4-.94-.52-1.93-.78-2.97-.78h-1.57v-1.21h18.93v1.21h-1.57c-1.04,0-2.03.25-2.97.75-.7.35-1.17.88-1.42,1.58-.25.71-.38,2.15-.38,4.32v28.55c0,2.24.14,3.72.42,4.44.22.54.66,1.01,1.34,1.4.96.52,1.96.78,3,.78h1.57v1.21h-18.93v-1.21h1.57c1.81,0,3.12-.53,3.95-1.6.54-.7.82-2.37.82-5.02v-13.48h-20.56v13.48c0,2.24.14,3.72.42,4.44.22.54.67,1.01,1.37,1.4.94.52,1.93.78,2.97.78h1.6v1.21h-18.96v-1.21h1.57c1.83,0,3.15-.53,3.98-1.6.52-.7.78-2.37.78-5.02v-28.55c0-2.26-.14-3.75-.42-4.47-.22-.54-.66-1.01-1.34-1.4-.96-.52-1.96-.78-3-.78h-1.57v-1.21h18.96v1.21h-1.6c-1.04,0-2.03.25-2.97.75-.67.35-1.14.88-1.4,1.58-.26.71-.39,2.15-.39,4.32v12.66Z"/>
      <path d="M97.39,119.32h14.06v1.21c-.89,0-1.52.15-1.88.46s-.54.71-.54,1.21.38,1.33,1.14,2.42c.24.35.6.89,1.08,1.63l2.12,3.39,2.45-3.39c1.57-2.15,2.35-3.51,2.35-4.08,0-.46-.19-.84-.55-1.16-.37-.31-.97-.47-1.79-.47v-1.21h10.12v1.21c-1.07.07-1.99.36-2.77.88-1.07.74-2.52,2.35-4.37,4.83l-4.08,5.45,7.44,10.7c1.83,2.63,3.13,4.21,3.92,4.75.78.53,1.79.83,3.04.9v1.17h-14.1v-1.17c.98,0,1.74-.22,2.28-.65.41-.3.62-.71.62-1.21s-.7-1.76-2.09-3.78l-4.37-6.4-4.8,6.4c-1.48,1.98-2.22,3.15-2.22,3.52,0,.52.24,1,.73,1.42.49.42,1.22.66,2.2.7v1.17h-9.76v-1.17c.78-.11,1.47-.38,2.06-.82.83-.63,2.22-2.24,4.18-4.83l6.27-8.32-5.68-8.22c-1.61-2.35-2.86-3.82-3.74-4.42-.88-.6-1.99-.9-3.31-.9v-1.21Z"/>
      <path d="M142.29,102.81v39.65c0,1.87.14,3.11.41,3.72.27.61.69,1.07,1.26,1.39.57.32,1.62.47,3.17.47v1.17h-14.65v-1.17c1.37,0,2.31-.14,2.81-.42.5-.28.89-.75,1.17-1.4.28-.65.42-1.9.42-3.75v-27.15c0-3.37-.08-5.44-.23-6.22-.15-.77-.4-1.3-.73-1.58-.34-.28-.77-.42-1.29-.42-.57,0-1.28.17-2.15.52l-.55-1.14,8.91-3.65h1.47Z"/>
      <path d="M148.43,122.29l9.2-3.72h1.24v6.98c1.54-2.63,3.09-4.48,4.65-5.53,1.56-1.05,3.19-1.58,4.91-1.58,3,0,5.5,1.17,7.51,3.52,2.46,2.87,3.69,6.61,3.69,11.23,0,5.16-1.48,9.42-4.44,12.79-2.44,2.76-5.5,4.14-9.2,4.14-1.61,0-3-.23-4.18-.68-.87-.33-1.85-.98-2.94-1.96v9.1c0,2.04.12,3.34.38,3.9.25.55.69.99,1.31,1.32.62.33,1.75.49,3.38.49v1.21h-15.66v-1.21h.82c1.2.02,2.22-.21,3.07-.69.41-.24.73-.62.96-1.16.23-.53.34-1.89.34-4.06v-28.26c0-1.94-.09-3.17-.26-3.69-.17-.52-.45-.91-.83-1.17-.38-.26-.9-.39-1.55-.39-.52,0-1.19.15-1.99.46l-.39-1.04ZM158.87,127.47v11.16c0,2.42.1,4,.29,4.76.3,1.26,1.05,2.37,2.24,3.33,1.19.96,2.68,1.44,4.49,1.44,2.17,0,3.94-.85,5.29-2.54,1.76-2.22,2.64-5.34,2.64-9.36,0-4.57-1-8.08-3-10.54-1.39-1.7-3.05-2.55-4.96-2.55-1.04,0-2.08.26-3.1.78-.78.39-2.08,1.57-3.88,3.52Z"/>
    </g>
  </g>
  <g class="st0">
    <g class="st0">
      <path d="M245.59,102.56c3.21.07,6.42.13,9.69.13,3.01,0,6.01-.07,9.02-.13v1.74c-3.81,0-6.08.33-6.08,4.81v14.57h27v-14.7c0-4.48-2.61-4.68-6.08-4.68v-1.74c3.21.07,6.35.13,9.56.13s6.15-.13,9.16-.13v1.74c-3.74,0-6.08.33-6.08,4.75v33.75c0,4.34,2.41,4.68,6.08,4.68v1.74c-3.14-.07-6.28-.13-9.42-.13s-6.22.07-9.29.13v-1.74c3.88,0,6.08-.47,6.08-4.68v-16.37h-27v16.17c0,4.14,1.67,4.88,6.08,4.88v1.74c-3.28,0-6.48-.13-9.76-.13-3.01,0-6.01.07-8.96.13v-1.74c4.28,0,6.08-.67,6.08-4.81v-33.68c0-4.81-3.01-4.54-6.08-4.68v-1.74Z"/>
      <path d="M302.06,119.67c2.34.07,4.68.13,7.02.13s4.81-.13,7.22-.13v1.74c-1.67,0-3.47,0-3.47,1.07,0,.74,4.54,6.22,6.55,8.89,1.34-1.8,6.68-7.35,6.68-8.62,0-.67-.47-1.34-3.07-1.34v-1.74c1.94.07,4.81.13,5.95.13,3.81,0,4.34-.13,6.55-.13v1.74c-3.54,0-5.35.94-7.42,3.34-1.74,2.07-3.94,4.41-7.35,8.42,4.21,5.08,8.49,11.09,10.83,13.57.27.27,1.4.73,2.34.73h1.6v1.74c-2.74,0-5.48-.13-8.29-.13-2.14,0-4.34.07-6.55.13v-1.74c3.54.13,3.54-.53,3.54-1,0-.33-3.74-5.01-7.08-9.22-1.4,1.87-7.49,8.29-7.49,9.16,0,1.14,2.07,1.07,3.94,1.07v1.74c-2.14-.07-4.28-.13-6.42-.13s-4.21.07-6.28.13v-1.74c5.35.07,5.81-1.34,8.29-4.21,2.21-2.61,4.41-5.01,6.62-7.75-4.14-5.41-7.55-10.03-9.76-12.43-1.27-1.4-2.27-1.6-3.94-1.67v-1.74Z"/>
      <path d="M348.71,98.95v46.25c0,1.74.74,2.27,2.67,2.27h1.8v1.74c-2.47,0-5.01-.13-7.49-.13-2.27,0-4.54.07-6.82.13v-1.74h1.54c1.6,0,2.94-.07,2.94-2.14v-36.89c0-4.01-.33-4.81-3.54-5.61v-1.07c3.74-1.27,5.81-2.27,6.88-2.87.94-.47,1.2-.74,1.47-.74.33,0,.53.33.53.8Z"/>
      <path d="M367.29,118.86v4.75c4.21-3.74,7.22-4.95,10.09-4.95,7.35,0,12.3,7.08,12.3,14.24,0,8.82-6.95,17.31-16.44,17.31-1.8,0-4.34-.53-5.95-1.27v12.16c0,1.4,1.27,1.6,2.81,1.6h3.34v1.74c-3.01-.07-5.95-.13-8.89-.13-2.67,0-5.28.07-7.95.13v-1.74h2.41c2.94,0,2.94-1.34,2.94-2.54v-30.94c0-5.21-1.6-5.08-3.94-6.08v-1c1.47-.67,6.22-2.94,7.89-3.61.4-.2.54-.27.67-.27.54,0,.74.2.74.6ZM367.29,143.46c1.67,3.01,4.14,4.61,7.15,4.61,6.15,0,9.89-6.21,9.89-12.43s-3.88-12.56-11.09-12.56c-2,0-4.54,1.14-5.95,2.21v18.18Z"/>
    </g>
  </g>
  <line class="st1" x1="22.39" y1="149.21" x2="211.61" y2="149.21"/>
  <line class="st1" x1="220.39" y1="149.21" x2="409.61" y2="149.21"/>
  <line class="st1" x1="22.39" y1="119.26" x2="211.61" y2="119.26"/>
  <line class="st1" x1="220.39" y1="119.67" x2="409.61" y2="119.67"/>
  <line class="st1" x1="220.39" y1="102.91" x2="409.61" y2="102.91"/>
  <line class="st1" x1="220.39" y1="98.16" x2="409.61" y2="98.16"/>
  <line class="st1" x1="220.39" y1="164.45" x2="409.61" y2="164.45"/>
  <line class="st1" x1="22.39" y1="163.52" x2="211.61" y2="163.52"/>
  <line class="st1" x1="22.39" y1="105.06" x2="211.61" y2="105.06"/>
  <line class="st1" x1="22.39" y1="102.91" x2="211.61" y2="102.91"/>
  <g class="st0">
    <g class="st0">
      <path class="st2" d="M22.89,176.08h.37c.19.5.76.52,1.11.52h8.54c.54,0,1.08-.15,1.15-.52h.39l-.17,2.95h-.5c-.07-.87.11-1.67-1.5-1.67h-2.8v10.42c0,1.26.74,1.28,1.69,1.3v.48c-.89,0-1.8-.04-2.71-.04-.84,0-1.65.02-2.49.04v-.48c.78-.04,1.69.07,1.69-1.28v-10.44h-2.41c-1.56,0-1.76.33-2.08,1.67h-.48l.2-2.95Z"/>
      <path class="st2" d="M37.39,181.3v7.11c0,.52.15.67.87.67h.37v.48c-.69,0-1.37-.04-2.06-.04-.63,0-1.28.02-1.91.04v-.48h.35c.52,0,.89-.02.89-.58v-5.05c0-.76-.2-.93-.97-1.32v-.3c1.26-.39,1.75-.56,1.95-.65.19-.09.24-.11.37-.11.09,0,.13.13.13.22ZM37.56,177.29c0,.5-.41.93-.91.93-.46,0-.91-.43-.91-.93,0-.46.45-.89.91-.89.5,0,.91.41.91.89Z"/>
      <path class="st2" d="M42.44,181.3v1.17c1.52-1.15,2.32-1.39,3.21-1.39.98,0,1.71.46,1.97,1.43,1.36-.97,2.08-1.43,3.19-1.43,1.52,0,2.21,1.13,2.21,2.62v4.81c0,.41.24.58.72.58h.48v.48c-.65,0-1.32-.04-1.97-.04s-1.3.02-1.95.04v-.48h.45c.54,0,.78-.11.78-.59v-4.2c0-1.56-.56-2.21-1.62-2.21-.58,0-1.45.39-2.19.89v5.53c0,.39.22.58.72.58h.56v.48c-.71,0-1.23-.04-2.17-.04-.61,0-1.21.02-1.82.04v-.48h.5c.46,0,.72-.11.72-.59v-4.2c0-1.56-.56-2.21-1.62-2.21-.58,0-1.45.39-2.19.89v5.46c0,.45.13.65.78.65h.48v.48c-.69,0-1.37-.04-2.06-.04s-1.32.02-1.97.04v-.48h.52c.39,0,.76-.04.76-.58v-5.11c0-.67-.19-.87-.97-1.26v-.3c1.21-.37,1.76-.58,1.95-.65.13-.07.26-.11.37-.11.09,0,.13.13.13.22Z"/>
      <path class="st2" d="M62.19,184.03c0,.09,0,.21-.02.3l-.17.11h-5.22c-.04.24-.04.5,0,1.06.11,1.75,1.21,3.23,2.73,3.23,1.04,0,1.84-.58,2.51-1.24l.26.26c-1.04,1.41-2.15,2.1-3.44,2.1-2.75,0-3.55-2.53-3.55-4.07,0-3.62,2.45-4.7,3.75-4.7,1.67,0,3.14,1.1,3.14,2.95ZM60.08,183.84c.37,0,.52-.13.52-.48,0-.89-.54-1.69-1.63-1.69s-1.89.82-2.12,2.17h3.23Z"/>
      <path class="st2" d="M68.82,181.62l.13,1.89h-.43c-.2-1.19-.84-1.84-2.02-1.84-.74,0-1.45.43-1.45,1.23,0,2.17,4.31,1.5,4.31,4.42,0,1.43-1.23,2.53-3.16,2.53-.76,0-1.69-.26-2.3-.63l-.2-2.14.33-.09c.3,1.49,1.17,2.27,2.34,2.27.98,0,1.5-.56,1.5-1.32,0-2.19-4.05-1.49-4.05-4.48,0-1.17.97-2.38,2.88-2.38.59,0,1.39.17,2.12.54Z"/>
      <path class="st2" d="M75.57,176.6c.52.02,1.06.04,1.58.04.61,0,1.1-.04,1.65-.04.76,1.13,2.53,2.88,4.48,5.01.98,1.1,1.82,2.01,2.53,2.75l2.19,2.36v-7.48c0-1.69-.5-2.13-2.25-2.15v-.48c.8.02,1.6.04,2.41.04.76,0,1.54-.04,2.32-.04v.48c-1.13-.02-1.75.13-1.75,1.89v10.75h-.43l-9.71-10.66v7.02c0,2.4.19,3.01,2.21,2.99v.48c-.91,0-1.6-.04-2.79-.04-.72,0-1.43.02-2.15.04v-.48c1.19,0,1.99-.02,1.99-2.45v-7.41c0-1.43-.59-2.15-2.28-2.13v-.48Z"/>
      <path class="st2" d="M98.28,184.03c0,.09,0,.21-.02.3l-.17.11h-5.22c-.04.24-.04.5,0,1.06.11,1.75,1.21,3.23,2.73,3.23,1.04,0,1.84-.58,2.51-1.24l.26.26c-1.04,1.41-2.15,2.1-3.44,2.1-2.75,0-3.55-2.53-3.55-4.07,0-3.62,2.45-4.7,3.75-4.7,1.67,0,3.14,1.1,3.14,2.95ZM96.16,183.84c.37,0,.52-.13.52-.48,0-.89-.54-1.69-1.63-1.69s-1.89.82-2.12,2.17h3.23Z"/>
      <path class="st2" d="M99.24,181.36c.56.02,1.13.04,1.71.04.85,0,1.32-.04,1.99-.04v.48c-.69,0-.97.09-.97.35,0,.15.07.37.15.56l1.95,5,1.54-3.99c.09-.22.13-.39.13-.71,0-.87-.58-1.15-1.34-1.21v-.48c.59.02,1.34.04,1.8.04.91,0,1.36-.04,2.06-.04v.48c-.48.04-1.04,0-1.04.45,0,.2.22.85.43,1.37l1.54,4.08h.04c1-2.56,1.58-3.99,1.69-4.38.11-.39.19-.67.19-.97,0-.45-.41-.54-1.11-.56v-.48c.52.02,1.06.04,1.58.04.76,0,1.08-.04,1.63-.04v.48c-.87-.02-1.17.65-1.41,1.24l-2.66,6.65-.67.11-2.28-5.85-2.23,5.74-.65.11-2.67-6.67c-.5-1.23-.63-1.36-1.39-1.34v-.48Z"/>
      <path class="st2" d="M119.27,176.6c.89.02,1.8.04,2.75.04,1,0,1.1-.04,2.62-.04,2.8,0,4.23,1.39,4.23,3.29,0,1.39-.97,2.67-2.64,3.18l2.23,3.32c.37.54.74,1.08,1.15,1.52.72.82,1.3,1.19,2.1,1.17v.48c-.48,0-.97-.04-1.45-.04-.52,0-1.02.02-1.52.04-.87-.95-1.58-1.95-2.19-2.86-.72-1.08-1.39-2.19-2.08-3.27h-1.69v4.33c0,1.13.54,1.34,1.69,1.32v.48c-.85,0-1.71-.04-2.58-.04s-1.75.02-2.62.04v-.48c1.34.07,1.69-.48,1.69-1.32v-9.3c0-1.1-.39-1.39-1.69-1.37v-.48ZM122.78,182.75c.28.06.58.09,1.04.09,1.95,0,3.12-1.24,3.12-2.84,0-1.84-1.08-2.8-3.06-2.8-.37,0-.58.04-1.1.11v5.44Z"/>
      <path class="st2" d="M141.55,185.42c0,2.32-1.82,4.42-4.27,4.42-2.6,0-4.49-1.82-4.49-4.34s1.8-4.42,4.25-4.42c2.69,0,4.51,1.82,4.51,4.35ZM137.26,189.36c1.78,0,2.58-2.01,2.58-3.75,0-1.56-.82-4.05-2.8-4.05-1.65,0-2.54,1.89-2.54,3.75,0,1.67.89,4.05,2.77,4.05Z"/>
      <path class="st2" d="M145.54,181.3v1.17c1.52-1.15,2.32-1.39,3.21-1.39.98,0,1.71.46,1.97,1.43,1.36-.97,2.08-1.43,3.19-1.43,1.52,0,2.21,1.13,2.21,2.62v4.81c0,.41.24.58.72.58h.48v.48c-.65,0-1.32-.04-1.97-.04s-1.3.02-1.95.04v-.48h.45c.54,0,.78-.11.78-.59v-4.2c0-1.56-.56-2.21-1.62-2.21-.58,0-1.45.39-2.19.89v5.53c0,.39.22.58.72.58h.56v.48c-.71,0-1.23-.04-2.17-.04-.61,0-1.21.02-1.82.04v-.48h.5c.46,0,.72-.11.72-.59v-4.2c0-1.56-.56-2.21-1.62-2.21-.58,0-1.45.39-2.19.89v5.46c0,.45.13.65.78.65h.48v.48c-.69,0-1.37-.04-2.06-.04s-1.32.02-1.97.04v-.48h.52c.39,0,.76-.04.76-.58v-5.11c0-.67-.19-.87-.97-1.26v-.3c1.21-.37,1.76-.58,1.95-.65.13-.07.26-.11.37-.11.09,0,.13.13.13.22Z"/>
      <path class="st2" d="M164.88,182.64v5.16c0,.67.22,1.04.67,1.04.24,0,.52-.11.69-.32l.17.32c-.5.46-1.1,1-1.84,1s-1.11-.71-1.15-1.37c-.84.76-1.67,1.37-2.86,1.37s-2.01-.85-2.01-1.82c0-1.5.95-1.76,4.85-3.12v-1.23c0-.95-.52-1.6-1.8-1.6-.89,0-1.41.58-1.41,1.32,0,.52-.65.76-1.04.76-.28,0-.33-.24-.33-.39,0-1.02.97-1.49,2.21-2.14.65-.33.91-.56,1.6-.56.93,0,2.27.59,2.27,1.56ZM161.36,188.97c.87,0,1.45-.56,2.04-1.08v-2.45c-.09.04-.54.19-1.08.35-1.28.41-2.28.93-2.28,1.84,0,.72.59,1.34,1.32,1.34Z"/>
      <path class="st2" d="M170.27,181.24v1.23c1.06-.76,1.97-1.39,3.21-1.39,1.49,0,2.14,1.04,2.14,2.6v4.83c0,.35.17.58.74.58h.52v.48c-.71,0-1.41-.04-2.14-.04-.61,0-1.23.02-1.84.04v-.48h.48c.43,0,.74-.06.74-.61v-4.81c0-.95-.54-1.58-1.69-1.58-.59,0-1.47.43-2.17.89v5.48c0,.5.24.63.72.63h.54v.48c-.69,0-1.39-.04-2.08-.04-.63,0-1.26.02-1.89.04v-.48h.48c.5,0,.74-.11.74-.59v-4.98c0-.65-.26-.87-1.08-1.19v-.35l1.17-.39c.39-.13.83-.32,1.28-.5.07,0,.11.07.11.17Z"/>
    </g>
  </g>
  <g class="st0">
    <g class="st0">
      <path class="st2" d="M227.85,176.88l.3,2.38h-.43c-.2-1.32-1.08-2.06-2.4-2.06-1.41,0-2.23,1.02-2.23,2.38,0,3.47,5.72,2.49,5.72,6.78,0,2.4-2.14,3.77-4.36,3.77-.93,0-1.93-.2-2.84-.63l-.37-2.71h.43c.37,1.58,1.49,2.75,2.9,2.75s2.54-1.02,2.54-2.47c0-3.45-5.5-2.43-5.5-6.82,0-2.28,1.58-3.64,3.97-3.64.72,0,1.54.17,2.27.28Z"/>
      <path class="st2" d="M236.78,182.92v5.16c0,.67.22,1.04.67,1.04.24,0,.52-.11.69-.32l.17.32c-.5.46-1.1,1-1.84,1s-1.11-.71-1.15-1.37c-.84.76-1.67,1.37-2.86,1.37s-2-.85-2-1.82c0-1.5.95-1.76,4.85-3.12v-1.23c0-.95-.52-1.6-1.8-1.6-.89,0-1.41.58-1.41,1.32,0,.52-.65.76-1.04.76-.28,0-.33-.24-.33-.39,0-1.02.97-1.49,2.21-2.14.65-.33.91-.56,1.6-.56.93,0,2.27.59,2.27,1.56ZM233.26,189.25c.87,0,1.45-.56,2.04-1.08v-2.45c-.09.04-.54.19-1.08.35-1.28.41-2.28.93-2.28,1.84,0,.72.59,1.34,1.32,1.34Z"/>
      <path class="st2" d="M242.28,175.88v6.82c.91-.78,1.88-1.34,2.77-1.34,2.08,0,3.45,1.8,3.45,3.9,0,2.47-1.82,4.87-4.44,4.87-.82,0-1.52-.13-2.58-.65l-.56.43-.39-.2c.19-1.26.26-2.34.26-3.16v-8.13c0-1.1-.19-1.24-.98-1.45v-.3c1.69-.56,2.19-1,2.32-1,.09,0,.15.09.15.22ZM242.28,187.69c0,.93.8,1.95,1.91,1.95,1.93,0,2.82-1.86,2.82-3.6,0-1.89-1.43-3.68-2.99-3.68-.67,0-1.3.48-1.75.87v4.46Z"/>
      <path class="st2" d="M258.82,185.7c0,2.32-1.82,4.42-4.27,4.42-2.6,0-4.49-1.82-4.49-4.34s1.8-4.42,4.25-4.42c2.69,0,4.51,1.82,4.51,4.35ZM254.53,189.64c1.78,0,2.58-2.01,2.58-3.75,0-1.56-.82-4.05-2.8-4.05-1.65,0-2.54,1.89-2.54,3.75,0,1.67.89,4.05,2.77,4.05Z"/>
      <path class="st2" d="M262.81,181.52v1.23c1.06-.76,1.97-1.39,3.21-1.39,1.49,0,2.14,1.04,2.14,2.6v4.83c0,.35.17.58.74.58h.52v.48c-.71,0-1.41-.04-2.14-.04-.61,0-1.23.02-1.84.04v-.48h.48c.43,0,.74-.06.74-.61v-4.81c0-.95-.54-1.58-1.69-1.58-.59,0-1.47.43-2.17.89v5.48c0,.5.24.63.72.63h.54v.48c-.69,0-1.39-.04-2.08-.04-.63,0-1.26.02-1.89.04v-.48h.48c.5,0,.74-.11.74-.59v-4.98c0-.65-.26-.87-1.08-1.19v-.35l1.17-.39c.39-.13.83-.32,1.28-.5.07,0,.11.07.11.17Z"/>
    </g>
  </g>
</svg>