<?xml version="1.0" encoding="UTF-8"?>
<svg id="Layer_1" data-name="Layer 1" xmlns="http://www.w3.org/2000/svg" viewBox="0 0 148.97 158.98">
  <defs>
    <style>
      .cls-1 {
        fill: none;
      }

      .cls-2 {
        fill: #010101;
      }

      .cls-3 {
        fill: #ec2227;
      }

      .cls-4 {
        font-family: SabonLTPro-Roman, 'Sabon LT Pro';
      }

      .cls-4, .cls-5 {
        fill: #6e6f72;
        font-size: 9.89px;
      }

      .cls-5 {
        font-family: TimesNewRomanPSMT, 'Times New Roman';
      }

      .cls-6 {
        letter-spacing: -.04em;
      }
    </style>
  </defs>
  <path class="cls-2" d="M32.38,51.91c2.52,4.34,5.24,7.54,8.16,9.59,2.93,2.05,6.25,3.22,9.98,3.52v1.19c-3.41-.12-7.05-.81-10.92-2.06-3.88-1.25-7.55-2.98-11.02-5.18-3.47-2.21-6.46-4.56-8.98-7.05-3.55-1.43-6.37-2.95-8.44-4.55-3.01-2.39-5.35-5.34-7.02-8.83-1.67-3.49-2.5-7.62-2.5-12.39,0-7.5,2.43-13.74,7.29-18.7C13.81,2.48,19.69,0,26.61,0s12.25,2.49,17.05,7.46c4.8,4.97,7.2,11.25,7.2,18.83,0,6.15-1.71,11.54-5.13,16.18-3.42,4.64-7.87,7.79-13.35,9.44ZM26.16,2.85c-4.49,0-8.11,1.6-10.85,4.81-3.46,4.02-5.18,10.18-5.18,18.48s1.75,14.38,5.26,18.77c2.71,3.38,6.31,5.07,10.77,5.07s8.38-1.69,11.22-5.07c3.33-4,5-9.9,5-17.7,0-6-.91-11.05-2.74-15.14-1.41-3.16-3.28-5.49-5.61-6.98-2.33-1.49-4.96-2.24-7.87-2.24Z"/>
  <text class="cls-4" transform="translate(70.59 142.36)"><tspan x="0" y="0">Sabon</tspan></text>
  <text class="cls-5" transform="translate(72.4 51.35)"><tspan class="cls-6" x="0" y="0">T</tspan><tspan x="5.69" y="0">imes New Roman</tspan></text>
  <g>
    <path class="cls-1" d="M46.03,117.8c0-12.3-7.12-27.07-19.72-27.07-10.45,0-17.97,9.03-17.97,23.21,0,12.33,7.22,27.13,19.65,27.13,11.21,0,18.03-9.79,18.03-23.28Z"/>
    <path class="cls-2" d="M54.37,115.59c0-13.72-11.21-27.3-27.07-27.3-16.68,0-27.3,14.28-27.3,27.93s10.85,25.91,24.96,27.27c.03,0,.03.03.07.03l10.15-1.32c11.97-3.69,19.19-15.07,19.19-26.61ZM8.34,113.94c0-14.18,7.52-23.21,17.97-23.21,12.59,0,19.72,14.77,19.72,27.07,0,13.48-6.82,23.28-18.03,23.28-12.43,0-19.65-14.8-19.65-27.13Z"/>
    <path class="cls-3" d="M55.82,153.5c-.63.3-1.45.46-2.08.46-3.86.07-6.2-1.75-12.03-6.89-1.65-1.42-3.17-2.64-4.48-3.56-.73-.53-1.42-.96-2.04-1.32l-10.15,1.32c10.35,4.88,14.97,15.46,23.64,15.46,3.43,0,5.77-1.45,7.81-4.12l-.66-1.35Z"/>
  </g>
</svg>